PathFileType	4	(X/Y/Z)	34_2_34_p1_0-694_filt_butterworth.trc
DataRate	CameraRate	NumFrames	NumMarkers	Units	OrigDataRate	OrigDataStartFrame	OrigNumFrames
60.0	60.0	4	27	m	60.0	0	694
Frame#	Time	RHip			RKnee			RAnkle			RBigToe			RSmallToe			RHeel			LHip			LKnee			LAnkle			LBigToe			LSmallToe			LHeel			Neck			Head			Nose			RShoulder			RElbow			RWrist			RThumb			RIndex			RPinky			LShoulder			LElbow			LWrist			LThumb			LIndex			LPinky			
		X1	Y1	Z1	X2	Y2	Z2	X3	Y3	Z3	X4	Y4	Z4	X5	Y5	Z5	X6	Y6	Z6	X7	Y7	Z7	X8	Y8	Z8	X9	Y9	Z9	X10	Y10	Z10	X11	Y11	Z11	X12	Y12	Z12	X13	Y13	Z13	X14	Y14	Z14	X15	Y15	Z15	X16	Y16	Z16	X17	Y17	Z17	X18	Y18	Z18	X19	Y19	Z19	X20	Y20	Z20	X21	Y21	Z21	X22	Y22	Z22	X23	Y23	Z23	X24	Y24	Z24	X25	Y25	Z25	X26	Y26	Z26	X27	Y27	Z27	
0	0.0	0.40038727829105436	0.5267345231474112	0.9747147411607213	0.4058313694970911	0.6587288455384053	1.3798444185521206	0.38204013644313245	0.7699664119150901	1.7457208388646404	0.34717959232210205	0.5944765456046579	1.7871568212944338	0.40638280943879024	0.6213299848386392	1.7985232011800956	0.3527888264879065	0.8812597095490533	1.7990964927934638	0.16669408484108944	0.5430136932552262	0.9847966286317659	0.16681199893976775	0.6429483725155282	1.377278653743993	0.1734931346595748	0.7532284979635946	1.7358702181449988	0.19562440620944643	0.5577792155475896	1.7735281673746117	0.13915453755407206	0.5972471335312143	1.772287981488979	0.19027809839695015	0.8118976204486708	1.7823722736192238	0.27217721068246414	0.42715689471716833	0.4416633156323437	0.2837843832685097	0.28372353745449597	0.19619592427164162	0.2749347222653943	0.2552088094664425	0.35125342531277615	0.44410817897887267	0.43562108658932835	0.5082120851681631	0.5173139928869881	0.4361508294183356	0.738313173615102	0.3696724411732877	0.3134695728121105	0.8675834365381032	0.2810461381282248	0.2374130898109495	0.8785338793117113	0.2674936721158793	0.2711671571128397	0.9061774922404902	0.2743377297451327	0.27903291699618615	0.9502933525856206	0.11436380149962058	0.4186250046462679	0.5089138633500485	0.04531078676908129	0.46179616207724694	0.7565049272573007	0.1983160150398089	0.2631715344057867	0.8535336809758375	0.31498361135473835	0.23937059213486855	0.8665810389034099	0.32179061400562115	0.24716097475718649	0.8929896334163425	0.2646399790924112	0.23760196208808937	0.9431641563944154
1	0.0166666666666666	0.4005213170225936	0.5263475891480381	0.9733525756789336	0.4053828631524377	0.65956035441738	1.382467837511633	0.38088124444837884	0.7746393150026881	1.7474309095480178	0.34519467023032796	0.5852615349613929	1.7862411316153761	0.40840570873805304	0.6099489889247482	1.7935787568775823	0.3529424978903443	0.8817204459954961	1.7990100540929599	0.16785683638607113	0.5431684996176269	0.9848317310731836	0.16714519122421484	0.6426906717043981	1.3759964327769865	0.1737037787488384	0.7538816138408525	1.7366988058792037	0.19551252929376645	0.557163667893161	1.7719550720967496	0.13919590700870502	0.5971023041721095	1.7733121559849445	0.18739162685730368	0.8204683750096678	1.7894494015329612	0.26951599444536595	0.4349945879142675	0.44131209421531065	0.2841044049183829	0.2846886026025624	0.19605542110669621	0.274952663823	0.255200062621243	0.35125597861522895	0.44157841838840023	0.4287895890762865	0.5062236544627857	0.5171473121906385	0.4356686890625362	0.7356092986618215	0.36947413368847115	0.3123737255782856	0.8678087080839894	0.279193887025685	0.2473299062026731	0.8734535296216404	0.26499244634564306	0.28007977526468436	0.906228658004156	0.277411002352598	0.27364967201938933	0.947721306209642	0.11435335021310844	0.41852848637224055	0.508940685748734	0.04522445334390944	0.4619012925969383	0.7572879452940513	0.20158332936261247	0.2576732594972458	0.8585242227339797	0.3147801155085485	0.23928238337872015	0.8639324545119189	0.32388877223067747	0.242882165729622	0.8942325232620163	0.27039252425776744	0.23625637934938967	0.9442380924523306
2	0.0333333333333333	0.40047762675636756	0.5260845315061394	0.972345786193163	0.4051106029808281	0.6600788465825844	1.384056575882552	0.3803931775555276	0.7766018395774438	1.7481689943369811	0.34400206858122356	0.5797685344500538	1.7857300801912999	0.4094517726455732	0.6028997349973442	1.7902378414199878	0.35302398120371836	0.8820155461106343	1.7989930272453676	0.16799648897116543	0.5431214666867149	0.9849327440333288	0.167306648255659	0.6426064142303677	1.375302321680776	0.1738981680921341	0.7535658932682476	1.7355449606604867	0.19546794058236736	0.5569191459669453	1.7712328734023415	0.13914797158210965	0.5973092681645037	1.7734281159169678	0.1848805874439707	0.8277189089574473	1.7940371923517855	0.26790725244440705	0.4397236457501874	0.4411003438227869	0.2848112600727481	0.2871413501509964	0.19569699131001847	0.27498309717685865	0.2551740863994056	0.3512552334955127	0.4400657806411185	0.4246369198063672	0.5051146081616992	0.5171440614457101	0.4355885975059757	0.7351360126155075	0.36889061356094527	0.31022072334108797	0.8684944483195272	0.278030076761202	0.2519191634068457	0.8703299897140738	0.2628488015853664	0.28107247761803683	0.9059002646555588	0.27882519171595044	0.26761628009413135	0.9465564543470278	0.11434945021635538	0.4184959892632638	0.5089645019140372	0.045228336371046646	0.4619266379296587	0.7572583683494448	0.20292428267976745	0.25507832736494845	0.8617902923812265	0.3146840419428043	0.2392295000379637	0.8630276498024377	0.3248275568396412	0.24098569686951435	0.8945404034581659	0.27343228502656997	0.23115302040075222	0.9446202503127257
3	0.05	0.4003014604403294	0.5258662146594828	0.9718538411539782	0.40502854711125713	0.6602449478798766	1.3845278899009836	0.3808005540313093	0.7750005229861556	1.7476142369657497	0.3436579677556677	0.578397632890095	1.7857241003820987	0.4095264538015398	0.6007954208949889	1.7891268246820982	0.3530267741084896	0.8820772010386458	1.7990402957225826	0.16710019565488596	0.5428777752866562	0.9850748187323941	0.1672472687157769	0.6427634491798558	1.3752718112126978	0.17410736727030426	0.7525874163738924	1.7330453868369473	0.1955341003597345	0.5572250000941461	1.7716366843112918	0.13904284064602188	0.597721938258177	1.7729101128249862	0.18331280147350143	0.8321325100719033	1.7957071812053527	0.26743660059559926	0.4410901679681382	0.4410386178800274	0.285790519446152	0.2906537261802181	0.19518794723318925	0.27502677320044144	0.25512890626920703	0.35125565069647474	0.439661885884831	0.42334973202951576	0.5051882908643452	0.5172275409241917	0.43581762507541166	0.7365302545815566	0.3680161958742403	0.3077680808770096	0.8696579628468684	0.2778338126318921	0.25017119190655757	0.8702058107464209	0.2622789738316802	0.27485213896246935	0.9065611562235908	0.2786096601382425	0.2621295195864762	0.9468498911801339	0.11435912232622988	0.41856581691156036	0.5090732883291699	0.04531477183047548	0.4620144689401129	0.7567954770111076	0.2018761683003856	0.25454797819946395	0.8628909494243742	0.31473320556922146	0.23921182235013266	0.8640130600233359	0.3249614980494948	0.2407063918386123	0.8943093907354136	0.27327480719325475	0.22324591899077237	0.944712222080524
